<mxfile host="app.diagrams.net" modified="2021-03-04T22:40:09.016Z" agent="5.0 (Macintosh; Intel Mac OS X 10_15_7) AppleWebKit/537.36 (KHTML, like Gecko) Chrome/88.0.4324.192 Safari/537.36" etag="wYbL3W2E4eJbRsopA4xM" version="14.4.4" type="github">
  <diagram name="Page-1" id="90a13364-a465-7bf4-72fc-28e22215d7a0">
    <mxGraphModel dx="1426" dy="771" grid="1" gridSize="10" guides="1" tooltips="1" connect="1" arrows="1" fold="1" page="1" pageScale="1.5" pageWidth="1169" pageHeight="826" background="#ffffff" math="0" shadow="0">
      <root>
        <mxCell id="0" style=";html=1;" />
        <mxCell id="1" style=";html=1;" parent="0" />
        <mxCell id="3a17f1ce550125da-2" value="Chisel Proxy Client" style="whiteSpace=wrap;html=1;shadow=1;fontSize=18;fillColor=#f5f5f5;strokeColor=#666666;horizontal=1;verticalAlign=top;" parent="1" vertex="1">
          <mxGeometry x="440" y="440" width="400" height="560" as="geometry" />
        </mxCell>
        <mxCell id="3a17f1ce550125da-8" value="Client-side&lt;br&gt;Caller App" style="whiteSpace=wrap;html=1;shadow=1;fontSize=18;fillColor=#f5f5f5;strokeColor=#666666;" parent="1" vertex="1">
          <mxGeometry x="200" y="520" width="160" height="120" as="geometry" />
        </mxCell>
        <mxCell id="8LlZhLx9PLDOJmXSzdPH-1" value="Chisel Proxy Server" style="whiteSpace=wrap;html=1;shadow=1;fontSize=18;fillColor=#f5f5f5;strokeColor=#666666;horizontal=1;verticalAlign=top;" vertex="1" parent="1">
          <mxGeometry x="1000" y="440" width="400" height="880" as="geometry" />
        </mxCell>
        <mxCell id="8LlZhLx9PLDOJmXSzdPH-2" value="Chisel Proxy Client" style="whiteSpace=wrap;html=1;shadow=1;fontSize=18;fillColor=#f5f5f5;strokeColor=#666666;horizontal=1;verticalAlign=top;" vertex="1" parent="1">
          <mxGeometry x="440" y="1080" width="400" height="240" as="geometry" />
        </mxCell>
        <mxCell id="8LlZhLx9PLDOJmXSzdPH-3" value="forward-proxy&lt;br&gt;StubChannelEndpoint" style="whiteSpace=wrap;html=1;shadow=1;fontSize=18;fillColor=#f5f5f5;strokeColor=#666666;" vertex="1" parent="1">
          <mxGeometry x="485" y="520" width="310" height="120" as="geometry" />
        </mxCell>
        <mxCell id="8LlZhLx9PLDOJmXSzdPH-4" value="reverse-proxy&lt;br&gt;SkeletonChannelEndpoint" style="whiteSpace=wrap;html=1;shadow=1;fontSize=18;fillColor=#f5f5f5;strokeColor=#666666;" vertex="1" parent="1">
          <mxGeometry x="485" y="680" width="310" height="120" as="geometry" />
        </mxCell>
        <mxCell id="8LlZhLx9PLDOJmXSzdPH-5" value="&lt;span&gt;forward-proxy&lt;/span&gt;&lt;br&gt;&lt;span&gt;StubChannelEndpoint&lt;/span&gt;" style="whiteSpace=wrap;html=1;shadow=1;fontSize=18;fillColor=#f5f5f5;strokeColor=#666666;" vertex="1" parent="1">
          <mxGeometry x="485" y="840" width="310" height="120" as="geometry" />
        </mxCell>
        <mxCell id="8LlZhLx9PLDOJmXSzdPH-7" value="reverse-proxy&lt;br&gt;SkeletonChannelEndpoint" style="whiteSpace=wrap;html=1;shadow=1;fontSize=18;fillColor=#f5f5f5;strokeColor=#666666;" vertex="1" parent="1">
          <mxGeometry x="485" y="1160" width="310" height="120" as="geometry" />
        </mxCell>
        <mxCell id="8LlZhLx9PLDOJmXSzdPH-8" value="forward-proxy SkeletonChannelEndpoint" style="whiteSpace=wrap;html=1;shadow=1;fontSize=18;fillColor=#f5f5f5;strokeColor=#666666;" vertex="1" parent="1">
          <mxGeometry x="1045" y="520" width="310" height="120" as="geometry" />
        </mxCell>
        <mxCell id="8LlZhLx9PLDOJmXSzdPH-9" value="reverse-proxy&lt;br&gt;StubChannelEndpoint" style="whiteSpace=wrap;html=1;shadow=1;fontSize=18;fillColor=#f5f5f5;strokeColor=#666666;" vertex="1" parent="1">
          <mxGeometry x="1045" y="680" width="310" height="120" as="geometry" />
        </mxCell>
        <mxCell id="8LlZhLx9PLDOJmXSzdPH-10" value="forward-proxy Skeleton &quot;Loop&quot; ChannelEndpoint" style="whiteSpace=wrap;html=1;shadow=1;fontSize=18;fillColor=#f5f5f5;strokeColor=#666666;" vertex="1" parent="1">
          <mxGeometry x="1045" y="840" width="310" height="120" as="geometry" />
        </mxCell>
        <mxCell id="8LlZhLx9PLDOJmXSzdPH-11" value="reverse-proxy Stub &quot;Loop&quot; ChannelEndpoint" style="whiteSpace=wrap;html=1;shadow=1;fontSize=18;fillColor=#f5f5f5;strokeColor=#666666;" vertex="1" parent="1">
          <mxGeometry x="1045" y="1160" width="310" height="120" as="geometry" />
        </mxCell>
        <mxCell id="8LlZhLx9PLDOJmXSzdPH-12" value="Client-side&lt;br&gt;Called Service" style="whiteSpace=wrap;html=1;shadow=1;fontSize=18;fillColor=#f5f5f5;strokeColor=#666666;" vertex="1" parent="1">
          <mxGeometry x="200" y="680" width="160" height="120" as="geometry" />
        </mxCell>
        <mxCell id="8LlZhLx9PLDOJmXSzdPH-13" value="Client-side&lt;br&gt;Caller App" style="whiteSpace=wrap;html=1;shadow=1;fontSize=18;fillColor=#f5f5f5;strokeColor=#666666;" vertex="1" parent="1">
          <mxGeometry x="200" y="840" width="160" height="120" as="geometry" />
        </mxCell>
        <mxCell id="8LlZhLx9PLDOJmXSzdPH-14" value="Client-side&lt;br&gt;Called Service" style="whiteSpace=wrap;html=1;shadow=1;fontSize=18;fillColor=#f5f5f5;strokeColor=#666666;" vertex="1" parent="1">
          <mxGeometry x="200" y="1160" width="160" height="120" as="geometry" />
        </mxCell>
        <mxCell id="8LlZhLx9PLDOJmXSzdPH-15" value="Server-side Called Service" style="whiteSpace=wrap;html=1;shadow=1;fontSize=18;fillColor=#f5f5f5;strokeColor=#666666;" vertex="1" parent="1">
          <mxGeometry x="1480" y="520" width="160" height="120" as="geometry" />
        </mxCell>
        <mxCell id="8LlZhLx9PLDOJmXSzdPH-16" value="Server-side&lt;br&gt;Caller App" style="whiteSpace=wrap;html=1;shadow=1;fontSize=18;fillColor=#f5f5f5;strokeColor=#666666;" vertex="1" parent="1">
          <mxGeometry x="1480" y="680" width="160" height="120" as="geometry" />
        </mxCell>
      </root>
    </mxGraphModel>
  </diagram>
</mxfile>
